<svg xmlns="http://www.w3.org/2000/svg" viewBox="0 0 231 99" width="231" height="99">
	<style>
		tspan { white-space:pre }
		.shp0 { fill: #ffcc00 } 
		.shp1 { fill: none;stroke: #655100;stroke-width: 2.305 } 
		.shp2 { fill: #ffffff } 
		.shp3 { fill: none;stroke: #006468;stroke-width: 2.305 } 
		.shp4 { fill: #4db7bb } 
		.shp5 { fill: #655100 } 
		.shp6 { fill: #006468 } 
		.shp7 { fill: none;stroke: #655100;stroke-width: 1.954 } 
		.shp8 { fill: none;stroke: #006468;stroke-width: 1.954 } 
	</style>
	<g id="g5">
		<path id="circle7" class="shp0" d="M16.5 28.61C9.86 28.61 4.5 23.24 4.5 16.61C4.5 9.97 9.86 4.61 16.5 4.61C23.14 4.61 28.5 9.97 28.5 16.61C28.5 23.24 23.14 28.61 16.5 28.61Z" />
		<path id="polyline9" class="shp1" d="M21.33 12.74L15.67 20.57L11.65 16.66" />
	</g>
	<g id="g11">
		<path id="circle13" class="shp2" d="M16.5 61.47C9.86 61.47 4.5 56.1 4.5 49.47C4.5 42.83 9.86 37.47 16.5 37.47C23.14 37.47 28.5 42.83 28.5 49.47C28.5 56.1 23.14 61.47 16.5 61.47Z" />
		<path id="polyline15" class="shp3" d="M21.33 45.6L15.67 53.43L11.65 49.51" />
	</g>
	<g id="g17">
		<path id="circle19" class="shp4" d="M16.5 94.48C9.86 94.48 4.5 89.11 4.5 82.48C4.5 75.84 9.86 70.48 16.5 70.48C23.14 70.48 28.5 75.84 28.5 82.48C28.5 89.11 23.14 94.48 16.5 94.48Z" />
		<path id="polyline21" class="shp3" d="M21.33 78.61L15.67 86.44L11.65 82.53" />
	</g>
	<g id="g23">
		<path id="circle25" class="shp0" d="M49.5 28.61C42.86 28.61 37.5 23.24 37.5 16.61C37.5 9.97 42.86 4.61 49.5 4.61C56.14 4.61 61.5 9.97 61.5 16.61C61.5 23.24 56.14 28.61 49.5 28.61Z" />
		<path id="polygon27" class="shp5" d="M45.15 15.31L49.05 15.31L49.05 11.53L54.44 16.88L49.07 22.25L49.07 18.56L45.15 18.54L45.15 15.31Z" />
	</g>
	<g id="g29">
		<path id="circle31" class="shp2" d="M49.5 61.47C42.86 61.47 37.5 56.1 37.5 49.47C37.5 42.83 42.86 37.47 49.5 37.47C56.14 37.47 61.5 42.83 61.5 49.47C61.5 56.1 56.14 61.47 49.5 61.47Z" />
		<path id="polygon33" class="shp6" d="M45.15 48.17L49.05 48.17L49.05 44.39L54.44 49.73L49.07 55.1L49.07 51.42L45.15 51.39L45.15 48.17Z" />
	</g>
	<g id="g35">
		<path id="circle37" class="shp4" d="M49.5 94.48C42.86 94.48 37.5 89.11 37.5 82.48C37.5 75.84 42.86 70.48 49.5 70.48C56.14 70.48 61.5 75.84 61.5 82.48C61.5 89.11 56.14 94.48 49.5 94.48Z" />
		<path id="polygon39" class="shp6" d="M45.15 81.18L49.05 81.18L49.05 77.4L54.44 82.74L49.07 88.11L49.07 84.43L45.15 84.41L45.15 81.18Z" />
	</g>
	<g id="g23 copy">
		<path id="circle25 copy" class="shp0" d="M83 29.07C76.36 29.07 71 23.7 71 17.07C71 10.43 76.36 5.07 83 5.07C89.64 5.07 95 10.43 95 17.07C95 23.7 89.64 29.07 83 29.07Z" />
		<path id="Shape 1" class="shp5" d="M89.5 17C89.5 16.92 89.44 16.84 89.32 16.78L78.94 11.57C78.82 11.51 78.71 11.5 78.63 11.55C78.54 11.59 78.5 11.68 78.5 11.8L78.5 22.2C78.5 22.32 78.54 22.41 78.63 22.45C78.71 22.5 78.82 22.49 78.94 22.43L89.32 17.22C89.44 17.16 89.5 17.08 89.5 17Z" />
	</g>
	<g id="g29 copy">
		<path id="circle31 copy" class="shp2" d="M83 61.92C76.36 61.92 71 56.56 71 49.92C71 43.29 76.36 37.92 83 37.92C89.64 37.92 95 43.29 95 49.92C95 56.56 89.64 61.92 83 61.92Z" />
		<path id="Shape 1 copy" class="shp6" d="M89.5 50C89.5 49.92 89.44 49.84 89.32 49.78L78.94 44.57C78.82 44.51 78.71 44.5 78.63 44.55C78.54 44.59 78.5 44.68 78.5 44.8L78.5 55.2C78.5 55.32 78.54 55.41 78.63 55.45C78.71 55.5 78.82 55.49 78.94 55.43L89.32 50.22C89.44 50.16 89.5 50.08 89.5 50Z" />
	</g>
	<g id="g35 copy">
		<path id="circle37 copy" class="shp4" d="M83 94.93C76.36 94.93 71 89.57 71 82.93C71 76.3 76.36 70.93 83 70.93C89.64 70.93 95 76.3 95 82.93C95 89.57 89.64 94.93 83 94.93Z" />
		<path id="Shape 1 copy 2" class="shp6" d="M89.5 83C89.5 82.92 89.44 82.84 89.32 82.78L78.94 77.57C78.82 77.51 78.71 77.5 78.63 77.55C78.54 77.59 78.5 77.68 78.5 77.8L78.5 88.2C78.5 88.32 78.54 88.41 78.63 88.45C78.71 88.5 78.82 88.49 78.94 88.43L89.32 83.22C89.44 83.16 89.5 83.08 89.5 83Z" />
	</g>
	<g id="g41">
		<path id="rect43" class="shp0" d="M138 6.57L159 6.57L159 27.57L138 27.57L138 6.57Z" />
		<path id="polygon45" class="shp5" d="M146.9 19.54L146.9 15.57L143.04 15.57L148.49 10.08L153.96 15.55L150.21 15.55L150.18 19.54L146.9 19.54Z" />
		<path id="rect47" class="shp5" d="M142.97 22.65L143.97 22.65L143.97 23.65L142.97 23.65L142.97 22.65Z" />
		<path id="rect49" class="shp5" d="M144.97 22.65L145.97 22.65L145.97 23.65L144.97 23.65L144.97 22.65Z" />
		<path id="rect51" class="shp5" d="M146.97 22.65L147.97 22.65L147.97 23.65L146.97 23.65L146.97 22.65Z" />
		<path id="rect53" class="shp5" d="M148.98 22.65L149.98 22.65L149.98 23.65L148.98 23.65L148.98 22.65Z" />
		<path id="rect55" class="shp5" d="M150.98 22.65L151.98 22.65L151.98 23.65L150.98 23.65L150.98 22.65Z" />
		<path id="rect57" class="shp5" d="M152.99 22.65L153.99 22.65L153.99 23.65L152.99 23.65L152.99 22.65Z" />
	</g>
	<g id="g59">
		<path id="rect61" class="shp0" d="M171 6.57L192 6.57L192 27.57L171 27.57L171 6.57Z" />
		<path id="polygon63" class="shp5" d="M183.1 10.08L183.1 14.05L186.96 14.05L181.51 19.54L176.04 14.07L179.79 14.07L179.82 10.08L183.1 10.08Z" />
		<path id="rect65" class="shp5" d="M175.97 22.65L176.97 22.65L176.97 23.65L175.97 23.65L175.97 22.65Z" />
		<path id="rect67" class="shp5" d="M177.97 22.65L178.97 22.65L178.97 23.65L177.97 23.65L177.97 22.65Z" />
		<path id="rect69" class="shp5" d="M179.97 22.65L180.97 22.65L180.97 23.65L179.97 23.65L179.97 22.65Z" />
		<path id="rect71" class="shp5" d="M181.98 22.65L182.98 22.65L182.98 23.65L181.98 23.65L181.98 22.65Z" />
		<path id="rect73" class="shp5" d="M183.98 22.65L184.98 22.65L184.98 23.65L183.98 23.65L183.98 22.65Z" />
		<path id="rect75" class="shp5" d="M185.99 22.65L186.99 22.65L186.99 23.65L185.99 23.65L185.99 22.65Z" />
	</g>
	<g id="g77">
		<path id="rect79" class="shp2" d="M138 39.42L159 39.42L159 60.42L138 60.42L138 39.42Z" />
		<path id="polygon81" class="shp6" d="M146.9 52.4L146.9 48.43L143.04 48.43L148.49 42.93L153.96 48.4L150.21 48.4L150.18 52.4L146.9 52.4Z" />
		<path id="rect83" class="shp6" d="M142.97 55.51L143.97 55.51L143.97 56.51L142.97 56.51L142.97 55.51Z" />
		<path id="rect85" class="shp6" d="M144.97 55.51L145.97 55.51L145.97 56.51L144.97 56.51L144.97 55.51Z" />
		<path id="rect87" class="shp6" d="M146.97 55.51L147.97 55.51L147.97 56.51L146.97 56.51L146.97 55.51Z" />
		<path id="rect89" class="shp6" d="M148.98 55.51L149.98 55.51L149.98 56.51L148.98 56.51L148.98 55.51Z" />
		<path id="rect91" class="shp6" d="M150.98 55.51L151.98 55.51L151.98 56.51L150.98 56.51L150.98 55.51Z" />
		<path id="rect93" class="shp6" d="M152.99 55.51L153.99 55.51L153.99 56.51L152.99 56.51L152.99 55.51Z" />
	</g>
	<g id="g95">
		<path id="rect97" class="shp2" d="M171 39.42L192 39.42L192 60.42L171 60.42L171 39.42Z" />
		<path id="polygon99" class="shp6" d="M183.1 42.93L183.1 46.9L186.96 46.9L181.51 52.4L176.04 46.93L179.79 46.93L179.82 42.93L183.1 42.93Z" />
		<path id="rect101" class="shp6" d="M175.97 55.51L176.97 55.51L176.97 56.51L175.97 56.51L175.97 55.51Z" />
		<path id="rect103" class="shp6" d="M177.97 55.51L178.97 55.51L178.97 56.51L177.97 56.51L177.97 55.51Z" />
		<path id="rect105" class="shp6" d="M179.97 55.51L180.97 55.51L180.97 56.51L179.97 56.51L179.97 55.51Z" />
		<path id="rect107" class="shp6" d="M181.98 55.51L182.98 55.51L182.98 56.51L181.98 56.51L181.98 55.51Z" />
		<path id="rect109" class="shp6" d="M183.98 55.51L184.98 55.51L184.98 56.51L183.98 56.51L183.98 55.51Z" />
		<path id="rect111" class="shp6" d="M185.99 55.51L186.99 55.51L186.99 56.51L185.99 56.51L185.99 55.51Z" />
	</g>
	<g id="g113">
		<path id="rect115" class="shp4" d="M138 72.43L159 72.43L159 93.43L138 93.43L138 72.43Z" />
		<path id="polygon117" class="shp6" d="M146.9 85.41L146.9 81.44L143.04 81.44L148.49 75.95L153.96 81.42L150.21 81.42L150.18 85.41L146.9 85.41Z" />
		<path id="rect119" class="shp6" d="M142.97 88.52L143.97 88.52L143.97 89.52L142.97 89.52L142.97 88.52Z" />
		<path id="rect121" class="shp6" d="M144.97 88.52L145.97 88.52L145.97 89.52L144.97 89.52L144.97 88.52Z" />
		<path id="rect123" class="shp6" d="M146.97 88.52L147.97 88.52L147.97 89.52L146.97 89.52L146.97 88.52Z" />
		<path id="rect125" class="shp6" d="M148.98 88.52L149.98 88.52L149.98 89.52L148.98 89.52L148.98 88.52Z" />
		<path id="rect127" class="shp6" d="M150.98 88.52L151.98 88.52L151.98 89.52L150.98 89.52L150.98 88.52Z" />
		<path id="rect129" class="shp6" d="M152.99 88.52L153.99 88.52L153.99 89.52L152.99 89.52L152.99 88.52Z" />
	</g>
	<g id="g131">
		<path id="rect133" class="shp4" d="M171 72.43L192 72.43L192 93.43L171 93.43L171 72.43Z" />
		<path id="polygon135" class="shp6" d="M183.1 75.95L183.1 79.91L186.96 79.91L181.51 85.41L176.04 79.94L179.79 79.94L179.82 75.95L183.1 75.95Z" />
		<path id="rect137" class="shp6" d="M175.97 88.52L176.97 88.52L176.97 89.52L175.97 89.52L175.97 88.52Z" />
		<path id="rect139" class="shp6" d="M177.97 88.52L178.97 88.52L178.97 89.52L177.97 89.52L177.97 88.52Z" />
		<path id="rect141" class="shp6" d="M179.97 88.52L180.97 88.52L180.97 89.52L179.97 89.52L179.97 88.52Z" />
		<path id="rect143" class="shp6" d="M181.98 88.52L182.98 88.52L182.98 89.52L181.98 89.52L181.98 88.52Z" />
		<path id="rect145" class="shp6" d="M183.98 88.52L184.98 88.52L184.98 89.52L183.98 89.52L183.98 88.52Z" />
		<path id="rect147" class="shp6" d="M185.99 88.52L186.99 88.52L186.99 89.52L185.99 89.52L185.99 88.52Z" />
	</g>
	<g id="g149">
		<path id="path151" class="shp5" d="" />
		<path id="rect153" class="shp0" d="M105 6.57L126 6.57L126 27.57L105 27.57L105 6.57Z" />
		<path id="polygon155" class="shp5" d="M116.04 10.55L117.04 10.55L121.02 14.54L121.02 15.51L120.04 15.51L116.04 15.51L116.04 10.55Z" />
		<path id="polygon157" class="shp5" d="M111 11.55L111 22.55L120.04 22.55L120.04 15.33L121.02 15.33L121.02 23.59L110 23.59L110 10.55L116.16 10.55L116.17 11.55L111 11.55Z" />
		<path id="rect159" class="shp5" d="M112 12.57L112.99 12.57L112.99 13.56L112 13.56L112 12.57Z" />
		<path id="rect161" class="shp5" d="M113.99 12.57L114.99 12.57L114.99 13.56L113.99 13.56L113.99 12.57Z" />
		<path id="rect163" class="shp5" d="M112 14.56L112.99 14.56L112.99 15.56L112 15.56L112 14.56Z" />
		<path id="rect165" class="shp5" d="M113.99 14.56L114.99 14.56L114.99 15.56L113.99 15.56L113.99 14.56Z" />
		<path id="rect167" class="shp5" d="M112 16.57L112.99 16.57L112.99 17.57L112 17.57L112 16.57Z" />
		<path id="rect169" class="shp5" d="M113.99 16.57L114.99 16.57L114.99 17.57L113.99 17.57L113.99 16.57Z" />
		<path id="rect171" class="shp5" d="M116 16.57L117 16.57L117 17.57L116 17.57L116 16.57Z" />
		<path id="rect173" class="shp5" d="M118 16.57L118.99 16.57L118.99 17.57L118 17.57L118 16.57Z" />
		<path id="rect175" class="shp5" d="M112 18.58L112.99 18.58L112.99 19.57L112 19.57L112 18.58Z" />
		<path id="rect177" class="shp5" d="M113.99 18.58L114.99 18.58L114.99 19.57L113.99 19.57L113.99 18.58Z" />
		<path id="rect179" class="shp5" d="M112 20.59L112.99 20.59L112.99 21.59L112 21.59L112 20.59Z" />
		<path id="rect181" class="shp5" d="M113.99 20.59L114.99 20.59L114.99 21.59L113.99 21.59L113.99 20.59Z" />
		<path id="rect183" class="shp5" d="M116 18.58L117 18.58L117 19.57L116 19.57L116 18.58Z" />
		<path id="rect185" class="shp5" d="M118 18.58L118.99 18.58L118.99 19.57L118 19.57L118 18.58Z" />
		<path id="rect187" class="shp5" d="M116 20.59L117 20.59L117 21.59L116 21.59L116 20.59Z" />
		<path id="rect189" class="shp5" d="M118 20.59L118.99 20.59L118.99 21.59L118 21.59L118 20.59Z" />
	</g>
	<g id="g191">
		<path id="path193" class="shp6" d="" />
		<path id="rect195" class="shp2" d="M105 39.42L126 39.42L126 60.42L105 60.42L105 39.42Z" />
		<path id="polygon197" class="shp6" d="M116.04 43.41L117.04 43.41L121.02 47.39L121.02 48.37L120.04 48.37L116.04 48.37L116.04 43.41Z" />
		<path id="polygon199" class="shp6" d="M111 44.41L111 55.41L120.04 55.41L120.04 48.18L121.02 48.18L121.02 56.45L110 56.45L110 43.41L116.18 43.41L116.2 44.41L111 44.41Z" />
		<path id="rect201" class="shp6" d="M112 45.42L112.99 45.42L112.99 46.42L112 46.42L112 45.42Z" />
		<path id="rect203" class="shp6" d="M113.99 45.42L114.99 45.42L114.99 46.42L113.99 46.42L113.99 45.42Z" />
		<path id="rect205" class="shp6" d="M112 47.42L112.99 47.42L112.99 48.41L112 48.41L112 47.42Z" />
		<path id="rect207" class="shp6" d="M113.99 47.42L114.99 47.42L114.99 48.41L113.99 48.41L113.99 47.42Z" />
		<path id="rect209" class="shp6" d="M112 49.43L112.99 49.43L112.99 50.43L112 50.43L112 49.43Z" />
		<path id="rect211" class="shp6" d="M113.99 49.43L114.99 49.43L114.99 50.43L113.99 50.43L113.99 49.43Z" />
		<path id="rect213" class="shp6" d="M116 49.43L117 49.43L117 50.43L116 50.43L116 49.43Z" />
		<path id="rect215" class="shp6" d="M118 49.43L118.99 49.43L118.99 50.43L118 50.43L118 49.43Z" />
		<path id="rect217" class="shp6" d="M112 51.43L112.99 51.43L112.99 52.43L112 52.43L112 51.43Z" />
		<path id="rect219" class="shp6" d="M113.99 51.43L114.99 51.43L114.99 52.43L113.99 52.43L113.99 51.43Z" />
		<path id="rect221" class="shp6" d="M112 53.44L112.99 53.44L112.99 54.44L112 54.44L112 53.44Z" />
		<path id="rect223" class="shp6" d="M113.99 53.44L114.99 53.44L114.99 54.44L113.99 54.44L113.99 53.44Z" />
		<path id="rect225" class="shp6" d="M116 51.43L117 51.43L117 52.43L116 52.43L116 51.43Z" />
		<path id="rect227" class="shp6" d="M118 51.43L118.99 51.43L118.99 52.43L118 52.43L118 51.43Z" />
		<path id="rect229" class="shp6" d="M116 53.44L117 53.44L117 54.44L116 54.44L116 53.44Z" />
		<path id="rect231" class="shp6" d="M118 53.44L118.99 53.44L118.99 54.44L118 54.44L118 53.44Z" />
	</g>
	<g id="g233">
		<path id="path235" class="shp6" d="" />
		<path id="rect237" class="shp4" d="M105 72.43L126 72.43L126 93.43L105 93.43L105 72.43Z" />
		<path id="polygon239" class="shp6" d="M116.04 76.42L117.04 76.42L121.02 80.4L121.02 81.38L120.04 81.38L116.04 81.38L116.04 76.42Z" />
		<path id="polygon241" class="shp6" d="M111 77.42L111 88.42L120.04 88.42L120.04 81.2L121.02 81.2L121.02 89.46L110 89.46L110 76.42L116.18 76.42L116.2 77.42L111 77.42Z" />
		<path id="rect243" class="shp6" d="M112 78.43L112.99 78.43L112.99 79.43L112 79.43L112 78.43Z" />
		<path id="rect245" class="shp6" d="M113.99 78.43L114.99 78.43L114.99 79.43L113.99 79.43L113.99 78.43Z" />
		<path id="rect247" class="shp6" d="M112 80.43L112.99 80.43L112.99 81.42L112 81.42L112 80.43Z" />
		<path id="rect249" class="shp6" d="M113.99 80.43L114.99 80.43L114.99 81.42L113.99 81.42L113.99 80.43Z" />
		<path id="rect251" class="shp6" d="M112 82.44L112.99 82.44L112.99 83.44L112 83.44L112 82.44Z" />
		<path id="rect253" class="shp6" d="M113.99 82.44L114.99 82.44L114.99 83.44L113.99 83.44L113.99 82.44Z" />
		<path id="rect255" class="shp6" d="M116 82.44L117 82.44L117 83.44L116 83.44L116 82.44Z" />
		<path id="rect257" class="shp6" d="M118 82.44L118.99 82.44L118.99 83.44L118 83.44L118 82.44Z" />
		<path id="rect259" class="shp6" d="M112 84.44L112.99 84.44L112.99 85.44L112 85.44L112 84.44Z" />
		<path id="rect261" class="shp6" d="M113.99 84.44L114.99 84.44L114.99 85.44L113.99 85.44L113.99 84.44Z" />
		<path id="rect263" class="shp6" d="M112 86.46L112.99 86.46L112.99 87.45L112 87.45L112 86.46Z" />
		<path id="rect265" class="shp6" d="M113.99 86.46L114.99 86.46L114.99 87.45L113.99 87.45L113.99 86.46Z" />
		<path id="rect267" class="shp6" d="M116 84.44L117 84.44L117 85.44L116 85.44L116 84.44Z" />
		<path id="rect269" class="shp6" d="M118 84.44L118.99 84.44L118.99 85.44L118 85.44L118 84.44Z" />
		<path id="rect271" class="shp6" d="M116 86.46L117 86.46L117 87.45L116 87.45L116 86.46Z" />
		<path id="rect273" class="shp6" d="M118 86.46L118.99 86.46L118.99 87.45L118 87.45L118 86.46Z" />
	</g>
	<g id="g275">
		<path id="rect277" class="shp0" d="M204 6.57L225 6.57L225 27.57L204 27.57L204 6.57Z" />
		<path id="rect279" class="shp5" d="M219.99 16.56L220.99 16.56L220.99 17.56L219.99 17.56L219.99 16.56Z" />
		<path id="rect281" class="shp5" d="M222 16.56L223 16.56L223 17.56L222 17.56L222 16.56Z" />
		<path id="rect283" class="shp5" d="M207 16.56L208 16.56L208 17.56L207 17.56L207 16.56Z" />
		<path id="circle285" class="shp7" d="M213.97 20.65C211.71 20.65 209.88 18.82 209.88 16.56C209.88 14.3 211.71 12.47 213.97 12.47C216.24 12.47 218.06 14.3 218.06 16.56C218.06 18.82 216.24 20.65 213.97 20.65Z" />
		<path id="rect287" class="shp5" d="M210.07 18.61L211.93 20.54L208.73 23.6L206.88 21.67L210.07 18.61Z" />
		<path id="rect289" class="shp5" d="M212.96 15.56L214.99 15.56L214.99 17.56L212.96 17.56L212.96 15.56Z" />
	</g>
	<g id="g291">
		<path id="rect293" class="shp2" d="M204 39.42L225 39.42L225 60.42L204 60.42L204 39.42Z" />
		<path id="rect295" class="shp6" d="M219.99 49.41L220.99 49.41L220.99 50.41L219.99 50.41L219.99 49.41Z" />
		<path id="rect297" class="shp6" d="M222 49.41L223 49.41L223 50.41L222 50.41L222 49.41Z" />
		<path id="rect299" class="shp6" d="M207 49.41L208 49.41L208 50.41L207 50.41L207 49.41Z" />
		<path id="circle301" class="shp8" d="M213.97 53.5C211.71 53.5 209.88 51.68 209.88 49.41C209.88 47.15 211.71 45.32 213.97 45.32C216.24 45.32 218.06 47.15 218.06 49.41C218.06 51.68 216.24 53.5 213.97 53.5Z" />
		<path id="rect303" class="shp6" d="M210.07 51.46L211.93 53.4L208.73 56.46L206.88 54.52L210.07 51.46Z" />
		<path id="rect305" class="shp6" d="M212.96 48.42L214.99 48.42L214.99 50.41L212.96 50.41L212.96 48.42Z" />
	</g>
	<g id="g307">
		<path id="rect309" class="shp4" d="M204 72.43L225 72.43L225 93.43L204 93.43L204 72.43Z" />
		<path id="rect311" class="shp6" d="M219.99 82.43L220.99 82.43L220.99 83.42L219.99 83.42L219.99 82.43Z" />
		<path id="rect313" class="shp6" d="M222 82.43L223 82.43L223 83.42L222 83.42L222 82.43Z" />
		<path id="rect315" class="shp6" d="M207 82.43L208 82.43L208 83.42L207 83.42L207 82.43Z" />
		<path id="circle317" class="shp8" d="M213.97 86.52C211.71 86.52 209.88 84.69 209.88 82.43C209.88 80.16 211.71 78.34 213.97 78.34C216.24 78.34 218.06 80.16 218.06 82.43C218.06 84.69 216.24 86.52 213.97 86.52Z" />
		<path id="rect319" class="shp6" d="M210.07 84.47L211.92 86.41L208.73 89.47L206.88 87.53L210.07 84.47Z" />
		<path id="rect321" class="shp6" d="M212.96 81.43L214.99 81.43L214.99 83.42L212.96 83.42L212.96 81.43Z" />
	</g>
</svg>